<?xml version="1.0" standalone="no"?>
<!DOCTYPE svg PUBLIC "-//W3C//DTD SVG 20010904//EN"
 "http://www.w3.org/TR/2001/REC-SVG-20010904/DTD/svg10.dtd">
<svg version="1.0" xmlns="http://www.w3.org/2000/svg"
 width="391.000000pt" height="391.000000pt" viewBox="0 0 391.000000 391.000000"
 preserveAspectRatio="xMidYMid meet">
<metadata>
Created by potrace 1.11, written by Peter Selinger 2001-2013
</metadata>
<g transform="translate(0.000000,391.000000) scale(0.100000,-0.100000)"
fill="#000000" stroke="none">
<path d="M2655 3709 c1 -60 -3 -113 -8 -116 -5 -3 -201 -7 -435 -8 -235 -2
-438 -5 -452 -9 -14 -3 -45 -8 -70 -11 -219 -27 -458 -114 -650 -239 -112 -73
-273 -241 -341 -357 -124 -210 -172 -428 -146 -664 9 -80 10 -87 46 -193 137
-410 488 -725 921 -829 81 -19 140 -26 260 -29 169 -4 250 8 322 48 41 23 97
97 100 132 0 12 2 34 3 50 5 72 -36 146 -100 178 -36 19 -93 35 -155 43 -25 3
-63 8 -85 11 -356 47 -611 205 -707 439 -41 99 -52 154 -52 265 0 121 19 203
67 300 32 66 100 157 147 196 14 12 39 34 55 48 69 60 264 141 385 161 25 4
54 10 65 12 11 3 201 7 422 8 292 2 403 0 406 -9 2 -6 3 -57 2 -113 -1 -58 3
-103 8 -103 9 0 227 78 959 341 158 57 284 106 280 110 -4 3 -115 44 -247 92
-132 47 -323 116 -425 152 -216 78 -571 205 -574 205 -1 0 -2 -50 -1 -111z"/>
<path d="M1927 2654 c-83 -16 -140 -47 -181 -97 -27 -34 -31 -48 -34 -113 -4
-65 -1 -79 21 -117 39 -65 98 -93 253 -117 417 -66 639 -190 754 -422 155
-315 45 -681 -265 -877 -56 -35 -206 -94 -280 -110 -27 -6 -63 -14 -80 -17
-16 -4 -216 -9 -442 -11 l-413 -5 -1 29 c0 15 0 67 0 116 1 48 -2 87 -6 87 -5
0 -75 -25 -158 -56 -82 -30 -157 -57 -165 -59 -8 -2 -53 -17 -100 -35 -47 -17
-121 -44 -165 -60 -44 -16 -129 -46 -190 -68 -60 -22 -189 -68 -285 -102 -168
-60 -213 -80 -178 -80 8 0 37 -9 64 -20 27 -10 144 -53 261 -94 116 -42 260
-93 320 -115 59 -22 205 -74 323 -116 118 -42 225 -80 238 -86 13 -5 27 -9 32
-9 6 0 9 48 9 110 -1 61 0 112 2 114 2 2 204 6 449 9 245 2 454 7 465 10 11 2
40 8 65 11 543 74 980 426 1095 881 23 94 25 104 29 225 17 429 -263 861 -699
1078 -73 37 -238 93 -310 106 -16 3 -46 8 -65 12 -69 12 -295 11 -363 -2z"/>
</g>
</svg>
